<?xml version="1.0" standalone="no"?>
<!DOCTYPE svg PUBLIC "-//W3C//DTD SVG 20010904//EN"
 "http://www.w3.org/TR/2001/REC-SVG-20010904/DTD/svg10.dtd">
<svg version="1.0" xmlns="http://www.w3.org/2000/svg"
 width="1125.000000pt" height="1159.000000pt" viewBox="0 0 1125.000000 1159.000000"
 preserveAspectRatio="xMidYMid meet">

<g transform="translate(0.000000,1159.000000) scale(0.100000,-0.100000)"
fill="#000000" stroke="none">
<path d="M5490 11440 c-19 -4 -125 -13 -235 -19 -111 -6 -228 -15 -260 -20
-33 -5 -98 -15 -145 -21 -74 -10 -172 -27 -355 -60 -145 -26 -436 -106 -653
-178 -1028 -344 -1967 -1010 -2638 -1873 -429 -552 -763 -1199 -954 -1849 -12
-41 -26 -86 -30 -100 -5 -14 -20 -74 -35 -135 -14 -60 -30 -126 -35 -145 -6
-19 -15 -62 -20 -95 -6 -33 -15 -82 -20 -110 -38 -213 -55 -345 -80 -600 -13
-142 -13 -684 0 -834 15 -165 40 -373 56 -466 17 -103 63 -340 74 -385 5 -19
13 -55 19 -80 14 -66 85 -313 116 -405 190 -568 474 -1118 821 -1586 108 -145
127 -169 288 -359 118 -139 433 -451 576 -571 502 -421 1035 -741 1610 -966
366 -144 832 -268 1210 -322 41 -6 107 -15 145 -21 195 -28 341 -35 690 -35
362 0 479 6 725 40 112 15 369 59 435 74 22 5 63 14 92 20 29 5 96 22 150 37
191 51 215 58 383 114 1337 445 2478 1402 3150 2640 47 88 200 397 200 406 0
2 13 32 28 66 149 330 308 852 363 1193 4 28 15 91 23 140 15 88 27 178 48
360 15 137 22 831 9 950 -7 55 -16 143 -22 195 -37 332 -105 666 -204 1000
-38 129 -119 354 -181 508 -63 155 -236 511 -315 647 -498 863 -1163 1538
-2029 2061 -167 100 -544 287 -735 364 -131 53 -385 145 -440 160 -16 5 -93
26 -170 48 -77 22 -194 52 -260 66 -66 15 -138 31 -160 36 -37 8 -144 26 -300
50 -126 19 -225 30 -380 40 -88 5 -187 13 -220 16 -111 10 -300 13 -335 4z
m470 -120 c165 -9 235 -16 425 -41 132 -18 283 -44 400 -69 146 -32 209 -48
362 -91 1014 -289 1933 -868 2623 -1654 271 -309 461 -577 671 -944 271 -475
488 -1056 593 -1586 62 -309 82 -468 106 -816 26 -385 -1 -818 -80 -1289 -14
-82 -51 -265 -60 -295 -5 -16 -19 -68 -30 -115 -43 -172 -78 -282 -163 -515
-215 -589 -542 -1151 -958 -1647 -96 -114 -410 -437 -539 -554 -255 -232 -635
-505 -959 -688 -118 -67 -419 -216 -526 -261 -49 -20 -103 -43 -120 -50 -16
-8 -57 -23 -90 -35 -33 -11 -67 -25 -75 -29 -30 -16 -399 -131 -530 -165 -288
-75 -605 -128 -945 -157 -183 -16 -660 -16 -850 -1 -141 12 -192 18 -375 43
-544 76 -1131 257 -1637 506 -419 206 -792 452 -1168 772 -153 130 -508 490
-631 641 -322 393 -528 714 -740 1148 -40 84 -74 156 -74 160 0 4 -7 19 -15
35 -40 77 -196 508 -230 637 -7 26 -13 49 -40 145 -19 65 -23 82 -55 225 -110
501 -152 1055 -115 1550 22 307 35 407 90 700 62 332 174 703 320 1060 50 121
198 430 260 540 80 142 99 176 115 200 9 14 46 70 81 125 160 251 389 546 575
744 326 347 645 620 1004 858 150 100 156 103 325 201 505 293 1139 525 1715
628 468 84 877 110 1340 84z"/>
<path d="M5898 10866 c-57 -22 -87 -45 -119 -93 -27 -39 -31 -53 -31 -112 0
-131 64 -192 277 -266 136 -47 165 -69 165 -124 -1 -87 -105 -133 -224 -100
-50 14 -92 58 -108 112 -7 23 -16 45 -21 48 -14 9 -138 2 -148 -8 -12 -12 15
-105 45 -157 46 -78 111 -115 243 -136 193 -31 340 44 373 193 21 97 -16 193
-96 248 -25 17 -98 50 -163 74 -139 50 -155 58 -175 87 -52 74 50 138 174 108
53 -13 100 -55 100 -90 0 -29 34 -41 103 -38 72 3 77 12 56 87 -18 64 -89 134
-160 157 -72 22 -242 28 -291 10z"/>
<path d="M5039 10838 c-44 -9 -48 -12 -58 -51 -6 -23 -49 -199 -96 -392 -47
-192 -89 -365 -94 -382 -6 -20 -6 -35 0 -39 5 -3 43 0 84 7 63 10 76 15 80 33
3 12 12 50 19 85 8 35 21 70 28 78 10 10 269 53 319 53 4 0 29 -39 55 -86 l47
-87 72 6 c111 10 111 10 73 76 -42 75 -83 147 -220 391 -201 360 -174 320
-221 319 -23 -1 -63 -6 -88 -11z m125 -295 c24 -49 55 -107 67 -130 13 -23 20
-45 16 -49 -12 -12 -201 -34 -210 -25 -4 4 2 50 14 102 12 52 25 110 29 130
16 83 29 78 84 -28z"/>
<path d="M6835 10745 c-5 -2 -27 -6 -48 -10 -47 -8 -113 -65 -138 -120 -43
-93 -9 -202 84 -273 29 -22 91 -63 139 -91 47 -28 96 -63 107 -77 65 -83 -29
-173 -152 -145 -102 22 -145 65 -156 153 l-6 53 -65 13 c-91 18 -94 16 -87
-72 11 -146 90 -230 259 -275 178 -48 308 -7 364 113 73 157 20 263 -191 383
-116 67 -155 103 -155 142 0 65 91 91 189 53 52 -20 82 -56 90 -109 6 -37 8
-38 73 -57 76 -22 98 -14 98 33 0 92 -61 186 -151 232 -70 35 -218 67 -254 54z"/>
<path d="M4290 10686 c-225 -68 -340 -110 -340 -125 0 -17 237 -740 249 -760
7 -10 23 -8 80 10 39 13 71 28 71 34 0 5 -18 66 -41 134 -22 68 -39 133 -37
144 2 16 23 27 100 52 162 54 234 110 257 201 16 62 13 101 -12 167 -28 72
-84 131 -144 151 -61 21 -93 20 -183 -8z m109 -142 c48 -19 76 -69 68 -122
-10 -59 -44 -85 -171 -128 -38 -13 -73 -21 -78 -16 -14 14 -69 185 -66 206 3
20 13 25 143 61 64 18 58 18 104 -1z"/>
<path d="M3310 10285 c-89 -56 -83 -35 -75 -241 6 -142 5 -184 -5 -184 -6 0
-82 36 -169 80 -86 44 -160 80 -164 80 -17 0 -147 -92 -141 -101 3 -6 47 -30
97 -54 51 -23 151 -71 222 -105 72 -34 140 -66 151 -70 12 -5 39 -37 60 -72
77 -127 145 -228 155 -228 8 0 113 62 128 76 2 2 -37 69 -88 148 l-91 146 0
280 c0 221 -3 280 -13 280 -7 0 -37 -16 -67 -35z"/>
<path d="M7935 10274 c-56 -21 -102 -69 -126 -133 -18 -48 -19 -60 -8 -105 17
-71 63 -137 162 -234 101 -99 117 -129 94 -177 -42 -89 -202 -63 -275 45 -20
30 -23 44 -20 99 l4 64 -60 28 c-34 16 -66 29 -73 29 -36 0 -45 -177 -13 -248
58 -128 292 -253 413 -221 70 18 122 55 158 111 31 48 34 59 34 128 0 98 -15
126 -123 237 -146 147 -165 184 -122 231 25 26 63 28 115 6 88 -36 128 -87
124 -155 -4 -44 -1 -48 63 -83 62 -35 74 -33 89 12 36 108 -5 206 -120 289
-114 82 -226 110 -316 77z"/>
<path d="M5350 9779 c-228 -20 -445 -55 -680 -109 -387 -89 -850 -294 -1225
-544 -248 -164 -398 -288 -625 -516 -611 -611 -997 -1388 -1119 -2250 -36
-255 -46 -681 -22 -900 28 -258 72 -506 117 -665 87 -301 160 -495 274 -725
429 -863 1126 -1525 2012 -1908 98 -43 354 -136 418 -152 19 -5 52 -14 73 -19
104 -30 167 -45 297 -72 65 -13 289 -45 402 -58 146 -17 601 -14 758 4 254 30
380 52 600 106 104 25 419 130 492 163 29 13 82 36 118 51 174 73 421 211 624
348 699 473 1246 1184 1521 1977 83 239 131 437 184 755 35 210 46 655 23 900
-16 164 -27 243 -63 425 -33 168 -68 305 -104 415 -45 135 -88 253 -120 331
-39 95 -199 419 -219 444 -6 8 -22 35 -35 60 -32 59 -147 231 -234 350 -424
574 -1040 1048 -1707 1313 -267 106 -476 166 -795 227 -267 51 -696 73 -965
49z m750 -123 c144 -20 234 -35 285 -46 253 -56 319 -74 535 -147 101 -34 131
-46 248 -99 29 -13 55 -24 58 -24 3 0 68 -31 144 -69 527 -265 975 -636 1339
-1110 69 -89 241 -343 241 -355 0 -3 11 -22 25 -42 32 -47 151 -281 205 -404
292 -658 392 -1464 269 -2175 -17 -93 -39 -206 -49 -245 -5 -19 -19 -73 -30
-120 -25 -97 -112 -365 -139 -425 -10 -22 -31 -71 -46 -110 -39 -94 -170 -351
-230 -450 -282 -467 -639 -853 -1073 -1164 -63 -44 -120 -81 -128 -81 -8 0
-14 -4 -14 -9 0 -18 -245 -159 -425 -246 -181 -87 -447 -191 -580 -226 -287
-75 -405 -100 -585 -123 -313 -40 -574 -47 -845 -21 -295 29 -482 64 -770 145
-78 22 -251 83 -360 127 -198 80 -566 273 -631 331 -11 9 -36 25 -55 35 -57
29 -284 201 -399 302 -838 736 -1320 1798 -1320 2907 0 278 13 422 67 713 227
1244 1062 2305 2218 2819 176 78 184 81 310 124 136 46 294 92 405 116 41 9
93 21 115 26 93 22 334 54 485 64 135 9 620 -3 730 -18z"/>
<path d="M5380 9424 c-504 -259 -682 -350 -935 -479 -148 -76 -333 -170 -410
-210 -77 -40 -200 -103 -272 -139 -73 -37 -133 -71 -133 -75 0 -5 19 -18 43
-29 23 -11 107 -52 187 -90 80 -38 244 -117 365 -175 326 -156 521 -250 700
-337 88 -43 194 -94 235 -113 41 -19 173 -83 293 -141 120 -58 220 -106 222
-106 4 0 209 98 525 252 102 50 230 112 285 138 55 26 177 85 270 130 94 45
206 99 250 120 44 21 178 85 297 143 119 58 253 122 297 143 45 21 81 43 81
49 0 12 -541 285 -565 285 -8 0 -38 -11 -67 -24 -29 -13 -136 -61 -238 -106
-102 -45 -198 -87 -215 -95 -16 -7 -122 -54 -235 -103 -113 -49 -230 -101
-260 -115 -30 -14 -98 -43 -151 -66 -53 -22 -135 -58 -183 -81 -48 -22 -93
-40 -100 -40 -8 0 -44 14 -82 31 -38 17 -204 90 -369 163 -179 80 -300 138
-300 146 0 8 282 156 670 351 368 185 671 341 672 346 4 10 -635 333 -658 333
-8 0 -106 -48 -219 -106z"/>
<path d="M3354 8337 c-2 -7 -3 -559 -2 -1227 l3 -1215 136 -90 c74 -49 278
-182 452 -295 175 -113 357 -231 405 -262 48 -31 93 -57 100 -57 9 -1 12 157
12 757 0 417 3 762 7 765 7 8 78 -30 253 -133 108 -64 559 -327 632 -369 18
-10 82 -47 141 -82 59 -35 117 -69 128 -75 17 -10 31 -4 94 37 41 27 76 49 79
49 3 0 49 26 103 59 54 32 116 69 138 81 22 12 137 79 255 148 118 68 258 149
310 180 52 30 117 68 143 84 26 16 52 26 58 23 5 -4 9 -300 9 -766 0 -544 3
-759 11 -759 6 0 48 24 92 53 45 29 106 68 136 87 30 19 148 96 262 170 114
74 298 194 408 265 l201 130 0 1228 0 1228 -28 -15 c-15 -8 -77 -45 -137 -82
-98 -60 -294 -179 -367 -223 -14 -9 -64 -39 -110 -67 -46 -28 -135 -83 -198
-121 -63 -39 -173 -106 -245 -150 -71 -43 -335 -204 -585 -357 -250 -154 -491
-300 -534 -327 -65 -40 -82 -46 -99 -38 -10 6 -200 121 -421 256 -220 135
-450 276 -511 313 -60 37 -171 104 -245 150 -279 171 -360 220 -560 342 -113
69 -276 168 -363 221 -101 61 -160 92 -163 84z"/>
<path d="M3820 8280 c14 -11 129 -82 255 -159 247 -149 723 -437 793 -480 23
-14 117 -72 210 -127 92 -56 216 -131 276 -168 60 -36 110 -66 111 -66 2 0 40
-22 84 -50 44 -27 88 -50 97 -50 17 0 28 6 174 95 47 28 148 89 225 135 77 46
159 96 182 112 23 15 44 28 48 28 3 0 63 35 133 79 70 43 215 131 322 196 107
65 240 146 295 179 55 34 170 104 256 155 85 51 166 102 180 113 24 19 24 19
1 13 -12 -4 -84 -36 -160 -72 -75 -36 -198 -94 -272 -128 -163 -76 -264 -124
-520 -245 -107 -51 -226 -107 -265 -125 -38 -18 -119 -56 -180 -85 -60 -29
-148 -70 -195 -92 -47 -22 -113 -53 -147 -69 l-63 -30 0 -72 c0 -50 -3 -67
-10 -57 -5 8 -10 34 -10 57 0 73 10 66 -265 193 -33 15 -136 64 -229 109 -92
44 -169 81 -171 81 -1 0 -69 32 -151 71 -82 39 -176 84 -209 99 -76 35 -168
79 -488 229 -142 67 -275 128 -295 136 l-37 15 25 -20z"/>
<path d="M4718 6031 c-23 -7 -27 -25 -27 -121 0 -149 -7 -140 115 -140 l104 0
0 130 0 130 -52 2 c-104 3 -128 3 -140 -1z"/>
<path d="M5023 6033 l-73 -4 0 -129 0 -130 105 0 105 0 0 130 c0 72 -3 130 -7
131 -40 4 -68 5 -130 2z"/>
<path d="M6170 5900 l0 -130 105 0 105 0 0 130 0 130 -105 0 -105 0 0 -130z"/>
<path d="M6420 5900 l0 -130 105 0 105 0 0 130 0 130 -105 0 -105 0 0 -130z"/>
<path d="M4729 5732 c-24 -3 -27 -8 -33 -64 -8 -83 -7 -170 2 -186 6 -9 35
-12 108 -10 l99 3 0 129 0 130 -75 0 c-41 1 -87 0 -101 -2z"/>
<path d="M4963 5733 c-10 -3 -13 -40 -13 -134 l0 -129 105 0 105 0 0 129 c0
125 -1 129 -22 134 -27 7 -157 7 -175 0z"/>
<path d="M6183 5734 c-10 -4 -13 -41 -13 -135 l0 -130 103 3 102 3 3 126 c2
114 1 127 -15 131 -26 7 -166 8 -180 2z"/>
<path d="M6433 5734 c-10 -4 -13 -41 -13 -135 l0 -129 105 0 105 0 0 129 c0
125 -1 129 -22 134 -31 7 -160 7 -175 1z"/>
<path d="M2060 5004 c-12 -30 -13 -84 -2 -102 7 -10 730 -12 3583 -10 l3574 3
3 53 c2 31 -2 60 -9 68 -10 12 -517 14 -3575 14 l-3564 0 -10 -26z"/>
<path d="M3232 4689 c-23 -12 -56 -37 -72 -57 -133 -162 -127 -570 11 -712 93
-95 225 -95 315 2 68 73 95 155 101 314 11 239 -46 392 -169 455 -51 26 -131
25 -186 -2z m147 -198 c31 -31 51 -115 51 -210 -1 -101 -11 -154 -38 -190 -16
-22 -27 -26 -68 -26 -48 0 -49 1 -71 45 -20 39 -23 59 -23 170 1 170 27 229
103 230 15 0 36 -9 46 -19z"/>
<path d="M4305 4691 c-109 -50 -175 -202 -175 -400 0 -272 101 -442 262 -441
172 1 282 197 265 476 -9 148 -56 276 -123 336 -55 49 -159 62 -229 29z m140
-203 c67 -59 73 -338 9 -409 -27 -30 -100 -23 -126 12 -39 53 -48 271 -14 353
27 64 85 84 131 44z"/>
<path d="M7384 4696 c-112 -49 -174 -198 -174 -416 0 -220 55 -351 172 -411
83 -42 201 -13 258 65 37 49 70 151 70 212 l0 44 -59 0 c-73 0 -91 -6 -91 -31
0 -11 -9 -37 -20 -58 -33 -66 -103 -61 -144 9 -19 31 -21 51 -20 170 1 178 23
230 96 230 37 0 61 -23 78 -76 l15 -49 70 0 70 0 -2 55 c-3 115 -76 230 -162
259 -45 15 -119 13 -157 -3z"/>
<path d="M2410 4280 l0 -410 70 0 70 0 0 188 c0 162 8 230 23 212 2 -3 14 -70
26 -150 12 -80 27 -169 32 -197 l10 -53 54 0 c53 0 54 1 60 33 3 17 16 104 30
192 33 206 35 215 46 215 5 0 9 -93 9 -220 l0 -220 70 0 70 0 0 410 0 410 -94
0 c-66 0 -95 -4 -98 -12 -3 -7 -20 -96 -38 -198 -40 -225 -49 -265 -60 -254
-4 5 -24 104 -44 219 -20 116 -39 218 -42 228 -5 15 -19 17 -100 17 l-94 0 0
-410z"/>
<path d="M3635 4668 c-3 -13 -4 -59 -3 -103 l3 -80 73 -3 72 -3 2 -302 3 -302
80 0 80 0 2 45 c0 25 2 161 2 303 l1 257 70 0 70 0 0 105 0 105 -225 0 c-225
0 -225 0 -230 -22z"/>
<path d="M4745 4677 c-3 -6 -4 -190 -3 -407 l3 -395 75 0 75 0 3 138 3 137 54
0 c73 0 81 -14 88 -152 3 -58 8 -111 11 -117 4 -6 39 -11 81 -11 l74 0 -4 68
c-3 37 -7 99 -9 137 -5 76 -29 150 -52 159 -20 8 -18 21 11 65 34 51 48 138
34 220 -23 144 -68 171 -290 171 -111 0 -151 -3 -154 -13z m270 -189 c29 -13
40 -45 31 -90 -10 -49 -23 -58 -87 -58 l-59 0 0 73 c0 41 3 77 7 80 11 11 80
8 108 -5z"/>
<path d="M5255 4633 c3 -32 17 -130 31 -218 13 -88 33 -223 45 -300 11 -77 25
-164 31 -192 l9 -53 79 0 79 0 5 33 c5 30 18 135 36 305 4 40 10 76 14 79 16
16 20 -5 46 -247 5 -52 12 -112 16 -132 l6 -38 78 0 c88 0 84 -4 95 90 3 30
10 78 15 105 5 28 14 84 20 125 9 67 36 253 61 415 13 92 18 86 -63 83 l-73
-3 -7 -35 c-4 -19 -12 -89 -18 -155 -17 -185 -31 -285 -40 -280 -4 2 -10 33
-13 67 -10 109 -27 250 -38 331 l-11 78 -67 -3 -66 -3 -17 -145 c-26 -216 -40
-314 -48 -323 -6 -7 -18 80 -40 298 -6 61 -14 125 -16 143 l-5 32 -76 0 -75 0
7 -57z"/>
<path d="M6113 4678 c-6 -7 -13 -29 -16 -48 -4 -19 -13 -66 -22 -105 -9 -38
-21 -92 -26 -120 -12 -54 -18 -80 -44 -195 -15 -65 -33 -147 -64 -292 -5 -21
-6 -40 -3 -43 3 -3 36 -5 73 -5 76 0 89 10 89 69 0 37 18 43 110 39 l65 -3 9
-40 c4 -22 10 -46 12 -52 5 -20 154 -18 154 1 0 8 -16 83 -35 168 -19 84 -57
258 -85 387 -28 129 -53 238 -56 243 -8 13 -150 10 -161 -4z m107 -374 c11
-54 20 -111 20 -126 0 -26 -3 -28 -44 -28 -25 0 -47 4 -50 9 -9 14 40 258 50
249 2 -3 13 -49 24 -104z"/>
<path d="M6420 4680 c0 -5 39 -117 88 -247 l87 -238 5 -160 5 -160 75 0 75 0
5 160 c5 160 5 160 52 290 113 315 128 357 128 361 0 2 -36 4 -79 4 -53 0 -83
-4 -88 -12 -4 -7 -24 -62 -43 -123 -22 -67 -41 -110 -49 -110 -8 0 -29 47 -53
123 l-39 122 -85 0 c-48 0 -84 -4 -84 -10z"/>
<path d="M7790 4280 l0 -410 85 0 85 0 -2 408 -3 407 -82 3 -83 3 0 -411z"/>
<path d="M8024 4677 c-3 -8 -4 -54 -2 -103 l3 -89 73 -3 72 -3 0 -304 0 -305
80 0 80 0 2 303 3 302 70 5 70 5 3 83 c2 54 7 82 14 80 10 -4 34 -62 84 -206
13 -39 39 -107 56 -150 30 -73 32 -86 37 -247 l6 -170 78 -3 77 -3 0 148 0
148 44 125 c24 69 65 184 90 255 25 72 46 134 46 138 0 4 -37 7 -82 5 l-82 -3
-17 -45 c-10 -25 -28 -78 -41 -119 -13 -41 -28 -76 -35 -79 -7 -2 -22 29 -37
80 -15 46 -33 102 -42 126 l-16 42 -314 0 c-252 0 -316 -3 -320 -13z"/>
<path d="M3610 3745 c-69 -14 -93 -27 -124 -68 -42 -56 -56 -103 -56 -194 0
-69 4 -94 25 -136 28 -60 63 -86 173 -134 93 -41 112 -57 112 -98 0 -77 -100
-83 -140 -10 -16 29 -19 30 -98 33 l-82 3 0 -29 c0 -63 33 -136 85 -188 54
-55 80 -64 174 -64 55 0 127 25 155 52 64 64 97 189 77 293 -20 110 -64 157
-196 209 -38 15 -80 37 -92 49 -25 22 -30 68 -10 85 36 29 102 10 113 -33 6
-24 9 -25 90 -25 97 0 97 1 67 97 -39 125 -142 185 -273 158z"/>
<path d="M4147 3723 c-4 -7 -26 -102 -57 -238 -5 -22 -21 -89 -35 -150 -14
-60 -35 -148 -46 -195 -49 -210 -56 -245 -49 -253 4 -4 42 -7 85 -5 l79 3 11
50 10 50 84 3 c94 3 111 -5 111 -53 0 -47 17 -56 102 -53 66 3 73 5 72 23 0
11 -27 133 -59 270 -31 138 -72 314 -90 391 -18 78 -35 147 -39 153 -8 12
-172 16 -179 4z m122 -404 c30 -155 32 -149 -34 -149 -30 0 -55 3 -55 8 0 4 9
57 21 117 19 94 35 143 44 133 2 -2 12 -51 24 -109z"/>
<path d="M4584 3717 c-2 -7 -3 -197 -2 -422 l3 -410 75 0 75 0 6 215 c3 118 7
217 8 220 6 15 32 -99 56 -252 16 -95 33 -176 39 -180 18 -12 104 -9 112 4 4
6 16 61 26 122 10 61 23 138 29 171 6 33 13 82 16 108 4 36 9 45 17 37 7 -7
11 -82 11 -228 l0 -217 72 -3 c61 -2 73 0 81 15 10 18 13 723 4 796 l-4 37
-103 0 c-73 0 -104 -4 -107 -12 -3 -7 -22 -107 -42 -223 -21 -115 -44 -223
-50 -240 l-13 -30 -11 50 c-6 28 -15 77 -21 110 -26 145 -63 329 -67 337 -9
14 -204 10 -210 -5z"/>
<path d="M5330 3405 c0 -305 1 -328 21 -380 25 -67 67 -119 118 -143 49 -23
203 -24 247 0 49 27 92 78 116 137 21 53 22 71 22 381 l1 325 -87 3 -88 3 0
-289 c0 -316 -6 -356 -54 -368 -42 -10 -78 0 -100 29 -20 27 -21 42 -24 328
l-3 299 -84 0 -85 0 0 -325z"/>
<path d="M5975 3717 c-3 -6 -4 -197 -3 -422 l3 -410 80 0 80 0 1 180 c3 275 2
263 17 240 8 -11 24 -47 36 -80 13 -33 49 -123 81 -200 l57 -140 64 -3 c118
-6 106 -52 108 411 1 221 -1 410 -4 420 -6 14 -20 17 -86 17 l-79 0 0 -214 c0
-118 -4 -217 -9 -220 -5 -3 -46 87 -91 202 -46 114 -87 213 -93 220 -13 17
-156 17 -162 -1z"/>
<path d="M6612 3308 l3 -423 160 0 c143 0 164 2 200 21 118 61 180 259 155
490 -18 166 -67 270 -146 310 -33 16 -66 20 -207 22 l-167 3 2 -423z m272 202
c40 -15 64 -64 71 -147 10 -103 -7 -210 -38 -241 -27 -26 -109 -43 -121 -24
-5 9 -11 351 -7 410 1 15 59 16 95 2z"/>
<path d="M7229 3363 c0 -203 -1 -393 -1 -423 l-1 -55 87 -3 86 -3 0 145 c0
106 3 145 13 148 6 3 34 3 60 0 73 -6 87 -35 87 -174 0 -125 -4 -121 115 -116
57 2 69 6 66 18 -2 8 -8 71 -12 140 -9 149 -13 165 -52 207 l-30 32 27 31 c75
89 72 295 -6 367 -45 43 -98 53 -274 53 l-164 0 -1 -367z m319 145 c16 -14 15
-100 -2 -123 -10 -14 -30 -20 -80 -23 l-66 -4 0 79 c0 44 3 83 7 87 10 10 125
-4 141 -16z"/>
<path d="M7835 3718 c-3 -7 -4 -198 -3 -423 l3 -410 85 0 85 0 0 420 0 420
-83 3 c-60 2 -84 -1 -87 -10z"/>
<path d="M3542 2732 c-22 -3 -23 -7 -20 -70 l3 -67 2090 -3 c1150 -1 2100 0
2113 3 20 5 22 11 22 70 0 45 -4 65 -12 65 -140 3 -4180 4 -4196 2z"/>
<path d="M8895 9691 c-6 -5 -98 -55 -205 -111 -389 -204 -533 -281 -544 -291
-12 -11 92 -108 116 -109 9 0 48 18 87 40 39 22 77 40 85 40 21 0 258 -210
253 -224 -2 -6 -17 -49 -32 -95 l-28 -85 59 -52 c32 -28 63 -50 69 -48 6 3 25
46 42 97 17 50 68 198 113 327 45 129 95 273 111 320 l29 85 -32 30 c-43 41
-99 85 -107 85 -4 0 -11 -4 -16 -9z m-85 -327 c-60 -162 -61 -164 -76 -164
-17 0 -154 121 -154 136 0 16 252 156 263 145 4 -4 -11 -57 -33 -117z"/>
<path d="M2434 9664 c-16 -8 -51 -32 -76 -52 -81 -67 -298 -276 -298 -287 0
-5 19 -30 42 -55 64 -70 333 -356 429 -454 86 -88 87 -89 110 -74 13 9 99 90
191 180 155 152 168 167 182 218 30 103 -14 215 -102 267 -46 28 -78 32 -166
21 l-30 -3 3 52 c3 68 -33 138 -92 176 -33 22 -53 27 -102 27 -33 0 -74 -7
-91 -16z m106 -149 c38 -20 63 -66 54 -102 -8 -33 -170 -203 -193 -203 -17 0
-131 108 -131 125 0 15 126 137 174 169 45 30 56 31 96 11z m254 -229 c71 -30
87 -104 38 -172 -27 -37 -163 -165 -184 -173 -12 -4 -147 139 -148 156 0 18
161 164 205 184 48 22 47 22 89 5z"/>
<path d="M9485 9148 c-11 -6 -22 -14 -25 -18 -3 -3 -61 -46 -130 -95 -69 -49
-156 -112 -195 -140 -38 -28 -118 -86 -177 -129 -59 -43 -111 -82 -114 -87 -5
-9 70 -119 81 -119 2 0 41 27 87 60 182 132 383 272 396 278 25 9 6 -16 -179
-235 -97 -115 -182 -218 -189 -229 -12 -19 -9 -28 29 -82 l43 -60 38 13 c22 8
147 57 279 109 132 53 245 96 250 96 25 0 7 -22 -56 -67 -68 -47 -394 -283
-402 -289 -5 -4 67 -112 79 -119 4 -2 92 57 196 132 104 75 220 159 258 186
159 113 217 159 214 168 -5 16 -133 189 -140 189 -3 0 -117 -43 -253 -95 -231
-89 -275 -103 -275 -89 0 3 37 51 83 106 45 56 104 129 131 162 27 34 70 85
94 114 l45 53 -46 67 c-80 114 -99 133 -122 120z"/>
<path d="M1431 8534 c-23 -37 -41 -73 -39 -80 2 -7 73 -108 158 -224 198 -269
222 -302 297 -406 l62 -86 46 70 c25 39 45 73 45 77 0 4 -25 39 -55 80 -30 40
-55 79 -55 87 0 9 8 26 18 39 10 13 47 71 83 128 35 57 69 105 75 108 6 2 41
-3 78 -11 111 -26 118 -24 160 43 37 60 42 76 28 85 -4 2 -86 18 -182 36 -96
17 -231 42 -300 55 -69 13 -174 33 -235 44 -60 12 -117 21 -126 21 -10 0 -35
-29 -58 -66z m364 -147 c72 -16 101 -26 103 -38 4 -23 -90 -169 -108 -168 -16
0 -173 198 -178 225 -5 20 24 17 183 -19z"/>
<path d="M10070 8180 c-36 -15 -114 -50 -174 -79 -59 -28 -110 -51 -112 -51
-17 0 -197 -99 -232 -127 -109 -89 -118 -218 -26 -393 70 -135 133 -180 247
-180 35 0 67 4 73 8 5 4 27 14 49 21 39 13 145 60 310 136 44 20 108 50 143
66 34 15 62 30 62 33 0 20 -62 136 -73 136 -7 0 -126 -51 -263 -114 -250 -114
-306 -132 -349 -116 -74 28 -126 154 -96 233 16 42 51 67 170 123 62 30 115
54 117 54 3 0 57 25 122 56 64 31 127 60 140 65 28 11 28 14 -3 80 -37 83 -32
81 -105 49z"/>
<path d="M1180 7873 c-55 -18 -105 -64 -134 -123 -39 -77 -166 -401 -166 -423
0 -7 45 -31 103 -54 198 -80 659 -255 661 -251 14 24 56 127 56 139 0 10 -3
12 -180 79 -99 38 -126 52 -128 68 -4 28 32 96 61 115 35 22 144 53 322 89 48
9 85 31 85 50 0 5 12 39 26 74 14 36 24 68 21 70 -12 12 -315 -59 -369 -86
-58 -30 -75 -27 -63 10 4 11 1 46 -5 77 -15 72 -81 143 -150 160 -82 21 -95
22 -140 6z m113 -174 c39 -18 60 -63 52 -112 -10 -59 -76 -228 -91 -234 -16
-6 -151 44 -176 65 -15 13 -15 18 8 80 41 111 84 193 107 202 31 12 72 12 100
-1z"/>
<path d="M10400 7249 c-66 -16 -105 -25 -260 -59 -219 -47 -407 -94 -416 -104
-17 -17 14 -136 35 -136 16 0 55 9 317 69 137 32 174 37 174 23 0 -5 -97 -104
-216 -220 -162 -158 -215 -215 -211 -229 3 -10 11 -44 18 -75 10 -48 16 -58
33 -58 12 0 149 30 306 66 157 36 314 72 350 79 128 29 125 27 122 71 -3 43
-20 104 -29 104 -8 0 -166 -36 -336 -76 -81 -20 -155 -33 -165 -31 -12 3 43
63 206 225 122 121 222 227 222 234 0 7 -4 29 -9 48 -5 19 -12 47 -15 63 -8
33 -20 33 -126 6z"/>
<path d="M1360 6865 c-113 -24 -290 -60 -395 -81 -104 -21 -195 -42 -201 -46
-6 -5 -17 -42 -24 -84 -14 -90 -19 -83 95 -152 44 -26 197 -120 340 -209 269
-166 305 -187 309 -181 5 7 26 126 26 146 0 15 -15 29 -57 52 -32 16 -70 40
-85 53 l-28 22 14 65 c7 36 19 102 27 148 7 46 18 90 23 98 6 8 51 22 101 31
89 18 90 18 101 53 6 19 15 56 18 83 l7 47 -33 -1 c-18 -1 -125 -21 -238 -44z
m-113 -200 c7 -20 -23 -185 -36 -198 -12 -12 -264 130 -258 147 2 6 30 16 63
23 103 21 209 41 217 42 4 1 10 -6 14 -14z"/>
<path d="M10275 6288 c-165 -4 -322 -12 -350 -16 l-50 -7 3 -185 c6 -304 39
-378 207 -457 56 -26 69 -28 190 -28 151 0 211 15 297 71 121 80 146 164 132
454 l-9 175 -60 1 c-33 1 -195 -3 -360 -8z m293 -270 c3 -129 -15 -182 -76
-215 -99 -55 -311 -57 -411 -4 -37 20 -60 87 -67 198 -5 80 -4 102 7 109 13 9
309 21 469 20 l75 -1 3 -107z"/>
<path d="M1460 6080 c-82 -62 -457 -319 -466 -320 -7 0 -81 63 -165 139 -85
77 -158 136 -162 131 -5 -4 -6 -52 -2 -106 l8 -99 37 -31 c21 -16 66 -55 101
-86 35 -31 99 -86 142 -123 42 -36 77 -70 77 -74 0 -5 -78 -12 -172 -17 l-173
-9 0 -75 0 -75 205 0 c113 1 298 4 413 9 l207 8 0 72 c0 40 -5 77 -11 83 -6 6
-52 8 -127 5 l-117 -4 -67 62 c-38 34 -68 66 -68 70 0 5 83 61 185 126 l185
117 0 108 c0 60 -1 109 -2 108 -2 0 -14 -9 -28 -19z"/>
<path d="M9872 5411 c-13 -9 -36 -141 -26 -150 5 -5 76 -20 158 -34 82 -15
156 -32 163 -40 11 -11 11 -22 -2 -65 -21 -69 -50 -91 -234 -172 -83 -37 -155
-70 -159 -74 -9 -9 -30 -112 -31 -148 -1 -16 4 -28 12 -28 32 0 274 107 320
142 29 21 56 37 62 35 5 -2 14 -26 18 -53 26 -160 227 -238 360 -140 56 41 84
118 121 326 9 52 21 115 26 140 5 25 11 62 14 82 l5 37 -52 10 c-29 6 -92 18
-142 26 -49 9 -151 28 -225 41 -74 14 -160 29 -190 34 -30 5 -85 15 -122 23
-36 8 -71 11 -76 8z m556 -262 c47 -8 76 -18 80 -27 6 -18 -13 -145 -34 -219
-23 -84 -84 -114 -154 -78 -39 20 -50 43 -50 102 0 68 29 226 43 235 7 4 19 6
27 4 8 -3 48 -10 88 -17z"/>
<path d="M1185 5100 c-172 -36 -286 -116 -344 -240 -54 -114 -26 -315 57 -426
91 -119 252 -170 412 -129 119 30 172 55 241 112 40 34 91 115 107 169 28 96
8 227 -49 335 -62 116 -166 179 -302 185 -45 2 -100 -1 -122 -6z m247 -197
c53 -37 86 -96 94 -170 8 -59 -22 -137 -66 -177 -90 -80 -278 -121 -373 -81
-80 33 -137 126 -137 219 1 91 71 176 178 214 83 30 90 31 177 29 72 -2 84 -5
127 -34z"/>
<path d="M9682 4573 c-19 -48 -35 -113 -30 -118 2 -3 67 -26 144 -51 76 -26
182 -61 234 -79 282 -96 381 -127 393 -122 15 6 52 118 45 138 -4 12 -725 258
-759 259 -9 0 -21 -12 -27 -27z"/>
<path d="M1396 4081 c-11 -36 -25 -80 -32 -98 l-13 -32 -113 -3 -113 -3 88
-64 c48 -36 87 -72 87 -81 0 -9 -12 -54 -26 -99 -14 -45 -24 -86 -22 -92 2 -6
39 16 83 49 92 69 89 69 187 -3 90 -65 92 -63 53 55 -14 41 -25 81 -25 90 0 8
36 41 80 73 44 32 80 62 80 67 0 5 -48 11 -107 12 l-107 3 -30 92 c-17 51 -35
94 -41 97 -6 2 -19 -26 -29 -63z"/>
<path d="M9734 4053 l-30 -98 -112 -5 c-73 -3 -109 -9 -104 -15 4 -6 42 -35
84 -65 43 -30 78 -59 78 -65 0 -5 -14 -52 -30 -104 -17 -52 -28 -96 -26 -98 2
-3 38 21 80 51 41 31 85 56 97 56 11 0 52 -22 90 -50 66 -48 89 -59 89 -42 0
7 -43 144 -55 173 -5 13 15 33 79 80 47 35 86 67 86 71 0 4 -48 9 -107 10
l-108 3 -32 95 c-17 52 -36 96 -40 97 -5 2 -23 -41 -39 -94z"/>
<path d="M1920 3594 c-155 -30 -401 -163 -522 -284 -113 -113 -143 -244 -84
-365 32 -65 88 -124 144 -151 51 -26 195 -26 272 0 152 51 354 178 450 282 94
101 121 209 79 318 -26 71 -92 146 -153 176 -42 20 -139 33 -186 24z m150
-204 c14 -9 29 -28 34 -42 29 -81 -60 -164 -355 -332 -61 -34 -154 -66 -196
-66 -43 0 -78 23 -93 60 -15 36 -6 74 26 117 49 64 358 250 464 278 52 15 84
10 120 -15z"/>
<path d="M9185 3558 c-158 -56 -259 -274 -195 -417 27 -58 78 -121 98 -121 10
0 39 28 65 61 l49 61 -20 21 c-31 35 -42 63 -42 107 0 108 124 153 203 75 32
-32 39 -73 26 -138 l-12 -51 39 -34 c67 -58 72 -59 93 -9 42 97 125 123 222
71 163 -89 110 -302 -70 -281 -57 7 -56 7 -95 -82 -36 -80 -28 -91 72 -99 98
-7 168 17 238 80 152 140 166 358 30 494 -51 52 -138 94 -191 94 -36 0 -117
-29 -141 -51 -32 -29 -41 -23 -47 32 -9 74 -47 133 -110 169 -44 25 -62 30
-117 29 -36 0 -78 -5 -95 -11z"/>
<path d="M2391 2928 c-56 -13 -106 -41 -105 -60 1 -8 18 -41 38 -72 32 -49 40
-57 59 -51 47 14 113 16 137 3 13 -7 35 -29 48 -48 32 -47 24 -92 -22 -139
-31 -30 -42 -35 -83 -35 -43 0 -79 13 -123 45 -12 9 -27 4 -68 -21 -28 -18
-52 -37 -52 -43 0 -5 18 -29 40 -53 35 -38 40 -50 40 -89 0 -74 -46 -138 -122
-169 -47 -20 -79 -20 -121 0 -74 36 -99 127 -54 206 l22 41 -60 53 c-37 34
-67 53 -80 52 -13 -2 -30 -24 -50 -63 -25 -51 -30 -72 -30 -135 0 -81 12 -121
57 -187 41 -61 85 -99 148 -131 48 -23 67 -27 145 -27 106 1 150 19 226 95 64
64 82 135 60 233 -5 20 -5 39 -1 42 5 3 30 1 56 -5 58 -13 137 7 185 47 47 40
79 115 79 189 0 72 -13 113 -52 171 -80 118 -204 177 -317 151z"/>
<path d="M8673 2866 c-112 -53 -198 -181 -197 -291 0 -65 31 -150 65 -181 18
-16 21 -15 75 27 31 24 58 49 61 55 2 7 -3 26 -11 43 -9 16 -16 51 -16 77 0
39 5 51 34 80 29 29 41 34 80 34 39 0 51 -5 81 -35 31 -32 35 -42 35 -87 0
-34 -7 -62 -21 -85 -23 -37 -23 -38 35 -100 37 -41 51 -41 71 -3 34 66 120 88
194 50 115 -58 144 -198 55 -266 -28 -22 -45 -27 -90 -27 -30 0 -60 5 -67 12
-6 6 -17 11 -23 11 -16 0 -115 -140 -108 -151 6 -10 56 -33 108 -49 130 -41
306 55 381 207 37 77 40 192 6 264 -68 143 -214 214 -334 164 -20 -8 -40 -15
-45 -15 -5 0 -12 34 -14 75 -6 88 -33 138 -100 182 -35 24 -54 28 -122 31 -69
2 -89 -1 -133 -22z"/>
<path d="M8035 2279 c-102 -83 -189 -157 -191 -164 -3 -7 6 -32 19 -56 39 -71
90 -166 156 -291 37 -69 69 -118 77 -118 8 0 39 15 69 34 47 31 55 41 69 89
18 62 73 120 124 132 104 22 242 -109 242 -230 0 -111 -116 -172 -218 -115
l-41 23 -63 -61 c-74 -73 -73 -81 18 -127 50 -25 70 -30 134 -30 92 1 163 31
238 103 75 71 104 137 104 236 0 181 -110 330 -276 373 -117 31 -224 -8 -313
-113 l-40 -48 -36 66 c-21 36 -37 72 -37 80 0 13 98 98 226 196 24 19 44 39
44 44 0 16 -93 128 -107 128 -6 0 -95 -68 -198 -151z"/>
<path d="M2970 2357 c-41 -15 -115 -61 -125 -77 -4 -6 21 -38 53 -72 57 -59
61 -62 79 -46 10 9 37 22 60 28 52 16 91 2 129 -43 35 -41 30 -105 -12 -148
-43 -44 -85 -52 -151 -27 l-55 20 -26 -23 c-15 -13 -37 -35 -51 -49 l-24 -24
22 -16 c91 -63 109 -95 96 -171 -9 -53 -83 -132 -137 -147 -76 -21 -146 19
-169 96 -10 33 -9 48 4 86 l16 47 -70 44 c-38 25 -75 45 -83 45 -23 0 -50 -89
-50 -165 1 -90 37 -168 108 -232 84 -75 137 -97 236 -97 68 -1 95 4 137 23 59
26 134 101 157 156 23 53 21 147 -4 195 -11 22 -20 41 -20 44 0 2 24 7 53 11
91 11 104 15 147 52 55 48 80 102 80 178 0 84 -15 128 -64 188 -60 74 -156
128 -238 133 -38 3 -77 -1 -98 -9z"/>
<path d="M7415 1897 l-60 -32 -6 -60 c-3 -33 -11 -74 -17 -92 -12 -37 -74
-146 -104 -185 l-22 -28 35 -67 c19 -37 39 -69 46 -71 14 -4 95 102 130 172
14 27 28 45 33 40 5 -5 52 -97 105 -204 53 -107 124 -250 157 -318 54 -108 64
-122 82 -116 31 10 135 65 142 75 3 5 -33 86 -79 181 -245 507 -362 738 -371
738 -6 0 -38 -15 -71 -33z"/>
<path d="M3740 1881 c-134 -20 -251 -133 -357 -346 -22 -44 -53 -117 -68 -162
-35 -105 -34 -230 2 -303 54 -109 183 -190 302 -190 129 1 238 78 304 218 28
59 32 77 32 152 -1 72 -5 93 -28 136 -52 101 -162 163 -262 149 -40 -6 -45 -5
-45 11 0 26 84 130 123 154 90 55 203 -7 195 -107 -3 -37 -3 -37 62 -64 97
-41 107 -39 115 21 18 134 -41 239 -170 300 -66 31 -136 42 -205 31z m-33
-480 c78 -36 94 -116 44 -225 -51 -112 -124 -157 -197 -122 -124 59 -81 304
61 354 41 14 44 14 92 -7z"/>
<path d="M6746 1636 c-51 -14 -66 -28 -66 -62 0 -42 -63 -146 -131 -217 -38
-40 -69 -74 -69 -76 0 -3 7 -32 16 -65 28 -103 31 -103 134 2 50 51 95 90 100
87 5 -3 15 -29 23 -58 8 -28 49 -178 92 -332 42 -154 81 -284 85 -288 8 -9
158 28 172 42 6 6 -21 115 -82 331 -29 104 -60 216 -85 305 -104 378 -93 345
-118 344 -12 0 -44 -6 -71 -13z"/>
<path d="M4983 1490 c-84 -34 -157 -130 -194 -257 -46 -160 -63 -390 -38 -517
47 -233 318 -332 497 -181 98 82 162 302 162 554 0 183 -29 280 -102 348 -70
66 -227 91 -325 53z m171 -151 c14 -7 33 -28 43 -48 41 -83 3 -484 -57 -602
-24 -46 -46 -59 -99 -59 -45 0 -74 22 -92 68 -30 76 6 454 53 565 34 78 88
105 152 76z"/>
<path d="M5865 1481 c-104 -19 -191 -99 -226 -209 -27 -86 -36 -252 -20 -386
31 -252 99 -374 238 -426 129 -48 285 -1 353 107 55 87 65 139 64 338 0 152
-3 193 -22 264 -55 211 -139 302 -288 315 -32 2 -77 1 -99 -3z m113 -167 c59
-41 88 -162 99 -405 9 -219 -13 -290 -91 -305 -104 -19 -145 74 -167 379 -18
257 10 344 111 346 14 1 36 -6 48 -15z"/>
<path d="M4187 1133 c-13 -22 -46 -153 -42 -165 3 -8 52 -26 113 -42 59 -15
135 -36 168 -46 34 -9 67 -14 73 -11 13 9 54 149 48 165 -3 7 -42 22 -88 35
-46 13 -122 34 -168 47 -92 26 -98 27 -104 17z"/>
</g>
</svg>
